<?xml version="1.0" standalone="no"?>
<!DOCTYPE svg PUBLIC "-//W3C//DTD SVG 20010904//EN"
 "http://www.w3.org/TR/2001/REC-SVG-20010904/DTD/svg10.dtd">
<svg version="1.0" xmlns="http://www.w3.org/2000/svg"
 width="512.000000pt" height="512.000000pt" viewBox="0 0 512.000000 512.000000"
 preserveAspectRatio="xMidYMid meet">

<g transform="translate(0.000000,512.000000) scale(0.100000,-0.100000)"
fill="#000000" stroke="none">
<path d="M1895 4551 c14 -147 87 -367 189 -568 35 -68 62 -123 61 -123 -1 0
-24 6 -51 14 -283 83 -593 50 -854 -91 -294 -159 -495 -360 -629 -630 -115
-231 -170 -490 -171 -801 -1 -520 169 -973 490 -1306 327 -339 742 -538 1280
-613 172 -23 528 -23 700 0 423 59 793 204 1070 420 159 125 288 261 392 416
206 307 308 666 308 1079 0 313 -47 546 -155 778 -144 310 -422 571 -723 678
-214 76 -495 87 -752 29 l-25 -5 22 16 c12 9 69 73 128 143 59 71 130 147 158
171 66 55 177 109 248 121 l54 9 -51 1 c-64 1 -181 -28 -270 -69 -188 -85
-428 -269 -540 -414 l-30 -39 -129 0 -130 -1 -74 40 c-213 112 -393 373 -493
714 l-28 95 5 -64z"/>
</g>
</svg>
